<?xml version="1.0" encoding="UTF-8"?>
<svg version="1.1" xmlns="http://www.w3.org/2000/svg" width="658" height="659">
<path d="M0 0 C0.97598145 0.43715332 1.95196289 0.87430664 2.95751953 1.32470703 C34.40907334 15.54994263 62.97301262 34.80493571 88.1875 58.375 C91.02508659 61.02341415 93.91500241 63.6049478 96.8125 66.1875 C100.55030633 69.58356404 103.98026292 73.04998424 107.22265625 76.91796875 C108.4820489 78.39325729 109.7868515 79.83032396 111.12109375 81.23828125 C131.61014838 102.87122399 148.17023667 129.21149305 161.03662109 156.00830078 C161.99163531 157.98270676 162.97208141 159.94272947 163.95703125 161.90234375 C184.49572689 203.34015209 194.52438206 251.64949464 194.3125 297.8125 C194.30976578 299.06684341 194.30976578 299.06684341 194.30697632 300.3465271 C193.99192597 387.10441485 159.9085045 466.31568962 101.25 529.4375 C100.64816895 530.0879126 100.04633789 530.7383252 99.42626953 531.40844727 C95.73825151 535.33295427 91.8860285 538.94562504 87.79931641 542.45239258 C85.66622946 544.2870789 83.61867276 546.20486892 81.5625 548.125 C21.80523378 601.79755978 -63.64679157 632.84507897 -144 629 C-144.87994629 628.95891113 -145.75989258 628.91782227 -146.66650391 628.87548828 C-200.85957913 626.0648118 -255.58294474 611.75649857 -302 583 C-303.23769337 582.26073362 -304.47600758 581.52250597 -305.71484375 580.78515625 C-321.47931863 571.28928634 -336.24839195 560.22189255 -350 548 C-351.09985229 547.02933594 -351.09985229 547.02933594 -352.22192383 546.0390625 C-358.53169329 540.42432698 -364.58862335 534.59448732 -370.5625 528.625 C-371.44357422 527.75617187 -372.32464844 526.88734375 -373.23242188 525.9921875 C-379.25948919 519.97846424 -384.72147728 513.67654565 -390 507 C-390.85800562 505.94004969 -391.71606384 504.88014194 -392.57421875 503.8203125 C-414.60090212 475.72713039 -431.78867172 444.50191896 -444 411 C-444.28182129 410.2383252 -444.56364258 409.47665039 -444.85400391 408.69189453 C-453.08817734 386.22719778 -458.07592163 362.70524027 -461 339 C-461.11714355 338.07541992 -461.23428711 337.15083984 -461.35498047 336.19824219 C-471.0092976 256.69716412 -448.72479916 173.79457275 -402 109 C-401.23945313 107.94296875 -400.47890625 106.8859375 -399.6953125 105.796875 C-383.35693073 83.58597878 -363.9737572 61.71916309 -342 45 C-340.64395691 43.91901636 -339.28997646 42.83544272 -337.9375 41.75 C-287.63487435 1.61311905 -225.18206466 -22.90206668 -161 -28 C-160.30825684 -28.05639648 -159.61651367 -28.11279297 -158.90380859 -28.17089844 C-104.66377153 -32.41173409 -49.52701158 -22.26534258 0 0 Z " fill="#000000" transform="translate(464,30)"/>
<path d="M0 0 C1.14088074 0.00007553 2.28176147 0.00015106 3.45721436 0.00022888 C4.68337463 0.00539017 5.90953491 0.01055145 7.17285156 0.01586914 C8.43236633 0.01728409 9.6918811 0.01869904 10.98956299 0.02015686 C14.33012775 0.02480466 17.67062378 0.03378258 21.01116943 0.04486084 C24.42313037 0.05510941 27.83509841 0.05966185 31.24707031 0.06469727 C37.93589136 0.07572576 44.62467999 0.0924635 51.31347656 0.11352539 C51.32282227 1.33346191 51.33216797 2.55339844 51.34179688 3.81030273 C51.38194965 8.37674226 51.44777674 12.94252585 51.52099609 17.50854492 C51.54905995 19.4772086 51.57034635 21.4459819 51.58447266 23.41479492 C51.60610561 26.26024922 51.65285726 29.10440552 51.70410156 31.94946289 C51.7053302 32.81654877 51.70655884 33.68363464 51.70782471 34.57699585 C51.87901707 41.87068233 53.64837629 48.67017104 58.17285156 54.51586914 C65.85654586 60.7549019 72.06406225 62.79007409 82.05957031 62.52368164 C89.62477848 61.57008397 95.26009861 57.96926105 100.05957031 52.15258789 C110.08027136 35.85724226 104.80228029 22.09496503 105.31347656 0.11352539 C141.94347656 0.11352539 178.57347656 0.11352539 216.31347656 0.11352539 C216.64347656 14.30352539 216.97347656 28.49352539 217.31347656 43.11352539 C221.76543897 54.55626675 221.76543897 54.55626675 230.93066406 61.42993164 C240.05180021 65.05564642 246.57515292 65.05564642 255.69628906 61.42993164 C262.61798898 57.94841989 265.78365267 52.91435977 268.49060059 45.84747314 C269.8082514 41.46967068 269.9165689 37.27642749 269.92285156 32.73071289 C269.93938782 31.79043243 269.95592407 30.85015198 269.97296143 29.88137817 C270.02103386 26.9170248 270.04272106 23.95318276 270.06347656 20.98852539 C270.09167039 18.96245856 270.12160252 16.93641512 270.15332031 14.91040039 C270.22678143 9.97815091 270.27660404 5.04617856 270.31347656 0.11352539 C276.19925144 0.01365582 282.08451872 -0.05841008 287.97094727 -0.10620117 C289.96777961 -0.1261518 291.9645548 -0.15332233 293.96118164 -0.18823242 C310.75633358 -0.47425054 324.21771931 0.31011261 337.31347656 12.11352539 C347.08435264 22.61721717 349.61787136 33.97566388 349.57417297 47.92256165 C349.57799852 49.21597306 349.58182407 50.50938447 349.58576554 51.84199017 C349.59603462 55.42119816 349.59386651 59.00030585 349.58958495 62.57952201 C349.58711571 66.44398632 349.59613439 70.3084266 349.60362244 74.17288208 C349.61636639 81.73990568 349.61816347 89.30689379 349.61582217 96.87392632 C349.61403836 103.02594724 349.61579001 109.1779574 349.62004662 115.32997704 C349.6206418 116.20593089 349.62123699 117.08188474 349.62185022 117.98438266 C349.62306199 119.76396361 349.62427612 121.54354456 349.6254926 123.3231255 C349.63636716 140.00947511 349.63420615 156.69580451 349.62810775 173.38215526 C349.62293979 188.63921579 349.63419099 203.89621244 349.65320597 219.15326033 C349.67258996 234.82680827 349.68083931 250.500326 349.67708272 266.173886 C349.67517138 274.97030342 349.67765158 283.76666648 349.69179726 292.56307411 C349.70371923 300.05238754 349.70510686 307.54161317 349.69300709 315.03092781 C349.68712387 318.8498999 349.68600343 322.66871147 349.69800949 326.48767281 C349.71089005 330.63308809 349.70039051 334.77812239 349.68769836 338.92353821 C349.69507265 340.12306557 349.70244693 341.32259292 349.71004468 342.55846959 C349.62379022 355.96161384 345.75197323 367.13773121 336.58300781 377.00415039 C326.5346065 386.34345626 315.44548054 388.56788423 302.15003967 388.49447632 C300.84266875 388.49915629 299.53529783 388.50383626 298.18830961 388.50865805 C294.57936672 388.52112799 290.97066324 388.51501609 287.36171973 388.5056994 C283.46183858 388.49889265 279.5619977 388.50939822 275.66212463 388.51763916 C268.02984953 388.53096176 260.39766305 388.52810522 252.7653845 388.51940124 C246.56049042 388.5126188 240.35562114 388.5117104 234.15072441 388.51497269 C233.26671545 388.51543239 232.38270649 388.51589208 231.47190939 388.51636571 C229.6759005 388.51732492 227.87989162 388.51829756 226.08388274 388.51928349 C209.25205925 388.5278332 192.42028482 388.51801009 175.58846938 388.50188239 C161.15636712 388.48848192 146.72433727 388.49080588 132.29223633 388.50463867 C115.52110348 388.5207059 98.75001362 388.52700681 81.97887415 388.51780188 C80.18926426 388.51684626 78.39965438 388.51590315 76.61004448 388.51497269 C75.28936457 388.51427845 75.28936457 388.51427845 73.94200425 388.51357018 C67.74745401 388.51098355 61.5529311 388.51534429 55.35838509 388.52241135 C47.80506813 388.53083935 40.25184466 388.52851901 32.69853837 388.51256911 C28.84715289 388.50470351 24.99592309 388.50156544 21.14453888 388.51151657 C16.96419037 388.52215402 12.78423239 388.50942275 8.60389709 388.49447632 C7.39406113 388.50116848 6.18422517 388.50786065 4.93772751 388.51475561 C-3.84410154 388.45390572 -12.19494143 387.44110936 -19.49902344 382.17602539 C-20.18609375 381.69262695 -20.87316406 381.20922852 -21.58105469 380.71118164 C-22.62326172 379.9203418 -22.62326172 379.9203418 -23.68652344 379.11352539 C-24.523125 378.49735352 -25.35972656 377.88118164 -26.22167969 377.24633789 C-34.14012211 370.39456363 -37.91767449 360.17958814 -39.68652344 350.11352539 C-39.77544065 348.29705962 -39.81553798 346.47782551 -39.8179512 344.65918636 C-39.82179235 343.56981209 -39.82563349 342.48043781 -39.82959104 341.35805219 C-39.82872455 340.16682597 -39.82785807 338.97559975 -39.82696533 337.74827576 C-39.82993645 336.47840209 -39.83290758 335.20852841 -39.83596873 333.90017372 C-39.8440265 330.37734275 -39.84582763 326.85453216 -39.8465662 323.33169305 C-39.84841893 319.5312377 -39.85596746 315.73079288 -39.86270142 311.93034363 C-39.87627741 303.62018311 -39.88230855 295.31002742 -39.88671207 286.99985766 C-39.88947621 281.80844251 -39.89371392 276.61702921 -39.89821625 271.42561531 C-39.91040884 257.04553437 -39.9207076 242.66545492 -39.92409134 228.28536892 C-39.92431091 227.36516856 -39.92453047 226.4449682 -39.92475669 225.49688298 C-39.92497497 224.57450522 -39.92519325 223.65212746 -39.92541814 222.70179886 C-39.9258616 220.83277476 -39.92630816 218.96375066 -39.92675781 217.09472656 C-39.92697924 216.16762999 -39.92720067 215.24053341 -39.92742881 214.285343 C-39.93137457 199.27200424 -39.94882186 184.25871409 -39.97211733 169.2453941 C-39.99585421 153.82276669 -40.00829428 138.40016364 -40.00945926 122.97751766 C-40.0103748 114.32184741 -40.01609647 105.66624047 -40.03427887 97.01058769 C-40.04971153 89.63803556 -40.05478176 82.26556629 -40.04654077 74.89300107 C-40.0426452 71.1345477 -40.04350998 67.37626102 -40.05759811 63.61782837 C-40.07276407 59.53431989 -40.06443808 55.45118384 -40.05401611 51.36766052 C-40.06207252 50.19204935 -40.07012892 49.01643818 -40.07842946 47.80520242 C-39.99289065 33.42774219 -36.37475587 22.01230478 -26.56152344 11.36352539 C-19.21570818 4.32950195 -10.17650435 -0.02251439 0 0 Z " fill="#FDFDFD" transform="translate(171.6865234375,147.886474609375)"/>
<path d="M0 0 C106.59 0 213.18 0 323 0 C324.12522818 13.50273811 324.12522818 13.50273811 324.15390015 19.88536072 C324.1582824 20.58881247 324.16266465 21.29226421 324.1671797 22.01703268 C324.18031716 24.3263811 324.18668845 26.6356917 324.19287109 28.94506836 C324.2007913 30.62030702 324.20906136 32.29554406 324.21765137 33.97077942 C324.24362736 39.42711817 324.25914402 44.88346371 324.2734375 50.33984375 C324.27880531 52.22910629 324.28418282 54.11836881 324.28956985 56.0076313 C324.3111535 63.8684355 324.32988911 71.72923783 324.34119225 79.59006405 C324.35743656 90.80679073 324.39067819 102.02317157 324.44759309 113.23976797 C324.48638325 121.15692033 324.50583505 129.07398046 324.51111281 136.9912253 C324.51475081 141.70717302 324.52660828 146.42274977 324.55921555 151.13859367 C324.58946069 155.57525698 324.59555 160.01132779 324.58383179 164.44807243 C324.58361249 166.06648986 324.59179666 167.68493622 324.60948563 169.30325699 C324.76023492 183.90082614 321.49112709 197.12050535 311.12109375 207.96484375 C301.77262113 216.61812663 291.9313027 219.30507594 279.44429016 219.27415466 C277.86768412 219.28200968 277.86768412 219.28200968 276.25922745 219.29002339 C272.74349901 219.30500376 269.22791636 219.30572812 265.7121582 219.30639648 C263.18875381 219.31401931 260.66535175 219.32244702 258.14195251 219.33161926 C251.29053345 219.35355973 244.43916478 219.36238476 237.58771539 219.36744571 C233.30519353 219.37070826 229.0226806 219.3772341 224.7401638 219.3844471 C212.87003145 219.40400688 200.99990738 219.42041472 189.12975788 219.42332363 C187.99143921 219.42360499 187.99143921 219.42360499 186.83012421 219.42389202 C185.29186674 219.42425826 183.75360927 219.42462196 182.2153518 219.42498314 C181.07005027 219.42525735 181.07005027 219.42525735 179.90161133 219.42553711 C179.13713895 219.42571766 178.37266658 219.42589821 177.58502837 219.42608423 C165.20363735 219.42962431 152.82242041 219.45663906 140.44108973 219.494035 C127.71234119 219.53217086 114.98367893 219.55148149 102.25487202 219.55178314 C95.11494487 219.55236653 87.97522543 219.56078145 80.83535194 219.58978081 C74.11703113 219.61694365 67.39918987 219.61815485 60.68081093 219.60212517 C58.22023624 219.60031229 55.75963784 219.60698662 53.29911423 219.62294388 C37.11445989 219.72147563 25.06299078 219.26827781 12.25390625 208.2890625 C2.19293234 198.07115832 -1.50568258 185.36455861 -1.50878906 171.31036377 C-1.49623284 169.8350797 -1.48328036 168.35979895 -1.4699707 166.88452148 C-1.47048068 165.29783484 -1.47274388 163.71114796 -1.47660828 162.12446594 C-1.48199066 157.84700512 -1.46270883 153.56998369 -1.43850732 149.29260135 C-1.41704841 144.78786077 -1.41779891 140.28311913 -1.41581726 135.77833557 C-1.40938461 128.20883748 -1.38820562 120.63950182 -1.35668945 113.07006836 C-1.31651367 103.40922954 -1.29900991 93.74849673 -1.28938007 84.0875845 C-1.28101678 75.72151706 -1.26380093 67.35547123 -1.24434257 58.98942304 C-1.2403167 57.20884171 -1.23657378 55.42825971 -1.2331202 53.64767718 C-1.22320761 48.5582061 -1.20846899 43.46879516 -1.1862812 38.37936211 C-1.18026538 36.85057106 -1.17575779 35.32177303 -1.17303848 33.79297256 C-1.15107117 22.48240918 -0.59571803 11.31864255 0 0 Z " fill="#010101" transform="translate(165,282)"/>
<path d="M0 0 C0.97598145 0.43715332 1.95196289 0.87430664 2.95751953 1.32470703 C34.40907334 15.54994263 62.97301262 34.80493571 88.1875 58.375 C91.02508659 61.02341415 93.91500241 63.6049478 96.8125 66.1875 C100.55030633 69.58356404 103.98026292 73.04998424 107.22265625 76.91796875 C108.4820489 78.39325729 109.7868515 79.83032396 111.12109375 81.23828125 C131.61014838 102.87122399 148.17023667 129.21149305 161.03662109 156.00830078 C161.99163531 157.98270676 162.97208141 159.94272947 163.95703125 161.90234375 C184.49572689 203.34015209 194.52438206 251.64949464 194.3125 297.8125 C194.30976578 299.06684341 194.30976578 299.06684341 194.30697632 300.3465271 C193.99192597 387.10441485 159.9085045 466.31568962 101.25 529.4375 C100.64816895 530.0879126 100.04633789 530.7383252 99.42626953 531.40844727 C95.73825151 535.33295427 91.8860285 538.94562504 87.79931641 542.45239258 C85.66622946 544.2870789 83.61867276 546.20486892 81.5625 548.125 C21.80523378 601.79755978 -63.64679157 632.84507897 -144 629 C-144.87994629 628.95891113 -145.75989258 628.91782227 -146.66650391 628.87548828 C-200.85957913 626.0648118 -255.58294474 611.75649857 -302 583 C-303.23769337 582.26073362 -304.47600758 581.52250597 -305.71484375 580.78515625 C-321.47931863 571.28928634 -336.24839195 560.22189255 -350 548 C-351.09985229 547.02933594 -351.09985229 547.02933594 -352.22192383 546.0390625 C-358.53169329 540.42432698 -364.58862335 534.59448732 -370.5625 528.625 C-371.44357422 527.75617187 -372.32464844 526.88734375 -373.23242188 525.9921875 C-379.25948919 519.97846424 -384.72147728 513.67654565 -390 507 C-390.85800562 505.94004969 -391.71606384 504.88014194 -392.57421875 503.8203125 C-414.60090212 475.72713039 -431.78867172 444.50191896 -444 411 C-444.28182129 410.2383252 -444.56364258 409.47665039 -444.85400391 408.69189453 C-453.08817734 386.22719778 -458.07592163 362.70524027 -461 339 C-461.11714355 338.07541992 -461.23428711 337.15083984 -461.35498047 336.19824219 C-471.0092976 256.69716412 -448.72479916 173.79457275 -402 109 C-401.23945313 107.94296875 -400.47890625 106.8859375 -399.6953125 105.796875 C-383.35693073 83.58597878 -363.9737572 61.71916309 -342 45 C-340.64395691 43.91901636 -339.28997646 42.83544272 -337.9375 41.75 C-287.63487435 1.61311905 -225.18206466 -22.90206668 -161 -28 C-160.30825684 -28.05639648 -159.61651367 -28.11279297 -158.90380859 -28.17089844 C-104.66377153 -32.41173409 -49.52701158 -22.26534258 0 0 Z M-175 -24 C-175.96953613 -23.87641113 -176.93907227 -23.75282227 -177.93798828 -23.62548828 C-257.40741439 -13.07644942 -336.14154519 28.27246797 -386 92 C-386.90334195 93.09355458 -387.80977474 94.18456089 -388.71875 95.2734375 C-444.08028341 162.06963727 -466.85084546 249.88980088 -459.22607422 335.50073242 C-451.94437994 401.59805887 -424.10777933 465.24747511 -380 515 C-379.154375 515.95648437 -378.30875 516.91296875 -377.4375 517.8984375 C-366.43602203 530.11138775 -354.98054685 541.88599058 -342 552 C-340.87259166 552.9254593 -339.74774534 553.85404542 -338.625 554.78515625 C-324.11248548 566.75226676 -308.38235964 576.79580292 -292 586 C-291.28859863 586.40428223 -290.57719727 586.80856445 -289.84423828 587.22509766 C-243.17070828 613.55134764 -188.93296458 626.20624582 -135.5625 626.25 C-134.8101004 626.25067474 -134.05770081 626.25134949 -133.28250122 626.25204468 C-100.80772343 626.20643942 -69.09370042 621.37553727 -38 612 C-37.14664062 611.74524902 -36.29328125 611.49049805 -35.4140625 611.22802734 C4.34797159 599.18007059 41.0694541 578.42866722 73 552 C73.96164062 551.22398437 74.92328125 550.44796875 75.9140625 549.6484375 C83.97891035 543.02638353 91.42191526 535.79226488 98.8125 528.4375 C99.54416885 527.71359573 99.54416885 527.71359573 100.2906189 526.97506714 C106.98876081 520.33301908 113.16934841 513.4193503 119 506 C119.57967529 505.269021 120.15935059 504.53804199 120.7565918 503.78491211 C136.60316893 483.65858497 150.07501076 462.189677 161 439 C161.32564941 438.31147949 161.65129883 437.62295898 161.98681641 436.91357422 C175.7468634 407.56193815 184.0736046 376.99331652 189 345 C189.19118408 343.78086914 189.19118408 343.78086914 189.38623047 342.53710938 C199.08570277 278.25828848 186.39104275 207.91426096 155.93408203 150.76220703 C154.98668428 148.97487903 154.06760894 147.1750597 153.15234375 145.37109375 C144.45939479 128.41353097 133.86906777 112.87700939 122 98 C120.79537109 96.47439453 120.79537109 96.47439453 119.56640625 94.91796875 C105.61591815 77.53580978 89.71879844 60.55896166 72 47 C70.99839844 46.18144531 69.99679687 45.36289063 68.96484375 44.51953125 C39.82053264 20.75604296 6.378741 3.37023226 -29 -9 C-29.82177734 -9.28858887 -30.64355469 -9.57717773 -31.49023438 -9.87451172 C-64.39393598 -21.26161146 -99.19740403 -26.23863991 -133.9375 -26.1875 C-134.70245789 -26.18689575 -135.46741577 -26.1862915 -136.2555542 -26.18566895 C-149.25609251 -26.15795141 -162.09284418 -25.6634466 -175 -24 Z " fill="#FFFFFF" transform="translate(464,30)"/>
<path d="M0 0 C5.24194814 2.39106406 9.40375781 6.80751562 12 12 C12.12443489 14.69802779 12.18887147 17.37123516 12.20874023 20.07055664 C12.22341591 21.32215073 12.22341591 21.32215073 12.23838806 22.59902954 C12.2683779 25.36938885 12.28974273 28.13969953 12.30859375 30.91015625 C12.31516558 31.85692167 12.3217374 32.8036871 12.32850838 33.77914238 C12.36112491 38.79504782 12.38556469 43.81093187 12.4050293 48.8269043 C12.42281103 52.97175216 12.45757744 57.11591567 12.50756836 61.26049805 C12.56790343 66.26847654 12.59852422 71.27582261 12.60820198 76.28414726 C12.61673908 78.18867787 12.63551398 80.0931924 12.6649456 81.99751472 C12.92769247 99.97277967 12.92769247 99.97277967 7.66297913 106.47850037 C3.39229965 110.38584782 -0.77716181 112.18168573 -6.5625 112.4375 C-13.04100952 112.11413206 -18.36901961 109.50234205 -23 105 C-26.09289719 100.0200455 -26.43670381 96.1034339 -26.40405273 90.42773438 C-26.41091599 89.58793533 -26.41777924 88.74813629 -26.42485046 87.88288879 C-26.44308298 85.11966832 -26.43928651 82.35701745 -26.43359375 79.59375 C-26.43815684 77.66613582 -26.44346279 75.73852328 -26.44947815 73.81091309 C-26.45840196 69.7760557 -26.45599392 65.74139633 -26.44604492 61.70654297 C-26.43454866 56.54146759 -26.45478056 51.37707521 -26.48396206 46.21208954 C-26.50232495 42.23317134 -26.50203154 38.25441686 -26.49632454 34.27546692 C-26.49617138 32.37131288 -26.50221158 30.4671477 -26.51461601 28.56303406 C-26.52952818 25.89901076 -26.51884816 23.23624997 -26.50170898 20.57226562 C-26.51137695 19.7897493 -26.52104492 19.00723297 -26.53100586 18.20100403 C-26.45109734 12.25622755 -24.62832391 8.64718748 -20.3671875 4.35546875 C-13.73134953 -0.83855102 -8.33835829 -0.67505523 0 0 Z " fill="#FEFEFE" transform="translate(257,91)"/>
<path d="M0 0 C4.48363176 2.83655421 7.54050773 5.55297958 9.6875 10.5 C10.84819595 16.90738051 10.50786211 23.54776861 10.44921875 30.03125 C10.45072275 31.95121499 10.45415666 33.87117935 10.45942688 35.7911377 C10.463749 39.805895 10.44699099 43.81984648 10.41479492 47.83447266 C10.37501489 52.96589325 10.38432102 58.09580351 10.40902996 63.22727203 C10.42325097 67.18919124 10.41309629 71.15076107 10.39551735 75.11265564 C10.38969088 77.00397405 10.39093525 78.89532856 10.39954185 80.78663635 C10.40758438 83.43603243 10.38316167 86.08325686 10.3503418 88.73242188 C10.35889191 89.50460556 10.36744202 90.27678925 10.37625122 91.07237244 C10.2520157 96.91852498 8.39110801 100.97744618 4.6875 105.5 C-1.74700445 110.51891347 -7.34251844 111.29253318 -15.3125 110.5 C-20.71748041 108.7418744 -24.07604904 104.9739175 -27.3125 100.5 C-28.56490027 96.74279919 -28.4923422 93.21603244 -28.52124023 89.30004883 C-28.53102402 88.46390045 -28.5408078 87.62775208 -28.55088806 86.76626587 C-28.58082336 83.99653714 -28.60222406 81.2268567 -28.62109375 78.45703125 C-28.62766558 77.50993475 -28.6342374 76.56283825 -28.64100838 75.58704185 C-28.67359621 70.57228463 -28.69804669 65.55754858 -28.7175293 60.54272461 C-28.73533055 56.39787784 -28.77013265 52.25371291 -28.82006836 48.10913086 C-28.8803472 43.10000424 -28.91101572 38.09150901 -28.92070198 33.08203697 C-28.92924576 31.17667991 -28.9480373 29.27133922 -28.9774456 27.36618996 C-29.24055567 9.34884641 -29.24055567 9.34884641 -23.91444397 3.80131531 C-23.38580246 3.37188126 -22.85716095 2.9424472 -22.3125 2.5 C-21.75779526 2.04522781 -21.20309052 1.59045563 -20.63157654 1.12190247 C-14.80574707 -3.21641841 -6.43245027 -2.76028517 0 0 Z " fill="#FEFEFE" transform="translate(424.3125,93.5)"/>
<path d="M0 0 C16.83 0 33.66 0 51 0 C51 16.83 51 33.66 51 51 C34.17 51 17.34 51 0 51 C0 34.17 0 17.34 0 0 Z " fill="#FBFBFB" transform="translate(335,297)"/>
<path d="M0 0 C0.88602402 0.00222061 1.77204803 0.00444122 2.68492126 0.00672913 C3.69993713 0.00684998 4.714953 0.00697083 5.76072693 0.00709534 C7.37243774 0.01476929 7.37243774 0.01476929 9.01670837 0.02259827 C9.99861145 0.02360535 10.98051453 0.02461243 11.99217224 0.02565002 C15.676144 0.03090007 19.36009918 0.04486119 23.04405212 0.05775452 C31.27342712 0.07837952 39.50280212 0.09900452 47.98155212 0.12025452 C47.98155212 16.95025452 47.98155212 33.78025452 47.98155212 51.12025452 C31.15155212 51.12025452 14.32155212 51.12025452 -3.01844788 51.12025452 C-3.03907288 42.89087952 -3.05969788 34.66150452 -3.08094788 26.18275452 C-3.09005188 23.58150696 -3.09915588 20.9802594 -3.10853577 18.30018616 C-3.11145475 16.25192822 -3.11400335 14.20366971 -3.11610413 12.15541077 C-3.12122009 11.08093689 -3.12633606 10.00646301 -3.13160706 8.89942932 C-3.13172791 7.88441345 -3.13184875 6.86939758 -3.13197327 5.82362366 C-3.13419388 4.93759964 -3.13641449 4.05157562 -3.13870239 3.13870239 C-2.97563215 0.4016012 -2.73710119 0.16307024 0 0 Z " fill="#FAFAFA" transform="translate(406.01844787597656,296.87974548339844)"/>
<path d="M0 0 C16.83 0 33.66 0 51 0 C51 16.5 51 33 51 50 C34.17 50 17.34 50 0 50 C0 33.5 0 17 0 0 Z " fill="#FDFDFD" transform="translate(335,432)"/>
<path d="M0 0 C16.83 0 33.66 0 51 0 C51 16.5 51 33 51 50 C34.17 50 17.34 50 0 50 C0 33.5 0 17 0 0 Z " fill="#FCFCFC" transform="translate(267,432)"/>
<path d="M0 0 C16.83 0 33.66 0 51 0 C51 16.5 51 33 51 50 C34.17 50 17.34 50 0 50 C0 33.5 0 17 0 0 Z " fill="#FCFCFC" transform="translate(199,432)"/>
<path d="M0 0 C16.83 0 33.66 0 51 0 C51 16.5 51 33 51 50 C34.17 50 17.34 50 0 50 C0 33.5 0 17 0 0 Z " fill="#FCFCFC" transform="translate(403,365)"/>
<path d="M0 0 C16.83 0 33.66 0 51 0 C51 16.5 51 33 51 50 C34.17 50 17.34 50 0 50 C0 33.5 0 17 0 0 Z " fill="#FDFDFD" transform="translate(335,365)"/>
<path d="M0 0 C16.83 0 33.66 0 51 0 C51 16.5 51 33 51 50 C34.17 50 17.34 50 0 50 C0 33.5 0 17 0 0 Z " fill="#FCFCFC" transform="translate(267,365)"/>
<path d="M0 0 C16.83 0 33.66 0 51 0 C51 16.5 51 33 51 50 C34.17 50 17.34 50 0 50 C0 33.5 0 17 0 0 Z " fill="#FCFCFC" transform="translate(199,365)"/>
<path d="M0 0 C16.83 0 33.66 0 51 0 C51 16.5 51 33 51 50 C34.17 50 17.34 50 0 50 C0 33.5 0 17 0 0 Z " fill="#FCFCFC" transform="translate(267,298)"/>
</svg>
