<svg width="958" height="622" viewBox="0 0 958 622" fill="none" xmlns="http://www.w3.org/2000/svg">
<circle cx="891" cy="356" r="26" fill="#CFCFCF"/>
<path d="M655.642 556V534.182H658.156V542.236H658.369C658.554 541.952 658.81 541.589 659.136 541.149C659.47 540.702 659.946 540.304 660.564 539.956C661.189 539.601 662.034 539.423 663.099 539.423C664.477 539.423 665.692 539.768 666.743 540.457C667.794 541.146 668.614 542.122 669.204 543.386C669.793 544.651 670.088 546.142 670.088 547.861C670.088 549.594 669.793 551.096 669.204 552.367C668.614 553.631 667.798 554.612 666.754 555.308C665.71 555.996 664.506 556.341 663.142 556.341C662.091 556.341 661.249 556.167 660.617 555.819C659.985 555.464 659.499 555.062 659.158 554.615C658.817 554.161 658.554 553.784 658.369 553.486H658.071V556H655.642ZM658.114 547.818C658.114 549.054 658.295 550.144 658.657 551.089C659.019 552.026 659.548 552.761 660.244 553.294C660.94 553.82 661.793 554.082 662.801 554.082C663.852 554.082 664.729 553.805 665.433 553.251C666.143 552.69 666.675 551.937 667.031 550.993C667.393 550.041 667.574 548.983 667.574 547.818C667.574 546.668 667.396 545.631 667.041 544.707C666.693 543.777 666.164 543.042 665.454 542.502C664.751 541.955 663.866 541.682 662.801 541.682C661.778 541.682 660.919 541.941 660.223 542.46C659.527 542.971 659.001 543.688 658.646 544.612C658.291 545.528 658.114 546.597 658.114 547.818ZM674.667 562.136C674.241 562.136 673.861 562.101 673.527 562.03C673.194 561.966 672.963 561.902 672.835 561.838L673.474 559.622C674.085 559.778 674.625 559.835 675.093 559.793C675.562 559.75 675.978 559.54 676.34 559.164C676.709 558.795 677.047 558.195 677.352 557.364L677.821 556.085L671.77 539.636H674.497L679.014 552.676H679.184L683.701 539.636H686.429L679.483 558.386C679.17 559.232 678.783 559.931 678.321 560.485C677.86 561.046 677.324 561.462 676.713 561.732C676.109 562.001 675.427 562.136 674.667 562.136ZM696.221 556L698.948 539.636H701.377L700.951 542.193H701.164C701.654 541.32 702.318 540.641 703.156 540.158C704.002 539.668 704.957 539.423 706.022 539.423C707.088 539.423 707.943 539.668 708.59 540.158C709.236 540.641 709.687 541.32 709.943 542.193H710.113C710.667 541.341 711.406 540.666 712.329 540.169C713.259 539.672 714.311 539.423 715.482 539.423C716.931 539.423 718.046 539.881 718.828 540.798C719.616 541.714 719.85 543.131 719.531 545.048L717.698 556H715.184L717.017 545.048C717.208 543.834 717.017 542.971 716.441 542.46C715.873 541.941 715.142 541.682 714.247 541.682C713.096 541.682 712.148 542.026 711.402 542.715C710.656 543.404 710.198 544.281 710.028 545.347L708.238 556H705.681L707.556 544.793C707.705 543.855 707.528 543.102 707.024 542.534C706.519 541.966 705.788 541.682 704.829 541.682C704.176 541.682 703.536 541.859 702.911 542.214C702.286 542.562 701.75 543.045 701.303 543.663C700.855 544.274 700.568 544.977 700.44 545.773L698.735 556H696.221ZM728.75 556.341C727.244 556.341 725.983 555.982 724.968 555.265C723.952 554.548 723.235 553.543 722.816 552.25C722.404 550.957 722.336 549.452 722.613 547.733C722.883 546.057 723.419 544.597 724.222 543.354C725.032 542.104 726.037 541.138 727.237 540.457C728.444 539.768 729.772 539.423 731.221 539.423C732.727 539.423 733.984 539.786 734.992 540.51C736.008 541.227 736.725 542.236 737.144 543.536C737.563 544.828 737.635 546.341 737.358 548.074C737.088 549.736 736.544 551.188 735.728 552.431C734.918 553.667 733.913 554.629 732.713 555.318C731.519 556 730.198 556.341 728.75 556.341ZM728.792 554.082C729.943 554.082 730.941 553.788 731.786 553.198C732.638 552.609 733.327 551.831 733.853 550.865C734.385 549.899 734.744 548.855 734.929 547.733C735.099 546.668 735.092 545.677 734.907 544.761C734.723 543.837 734.328 543.095 733.725 542.534C733.121 541.966 732.272 541.682 731.179 541.682C730.028 541.682 729.023 541.98 728.164 542.577C727.311 543.173 726.622 543.958 726.097 544.931C725.571 545.904 725.22 546.952 725.042 548.074C724.872 549.139 724.875 550.13 725.053 551.046C725.238 551.955 725.632 552.69 726.235 553.251C726.846 553.805 727.698 554.082 728.792 554.082ZM743.729 546.156L742.11 556H739.596L742.323 539.636H744.752L744.326 542.193H744.539C745.05 541.362 745.743 540.695 746.616 540.19C747.49 539.679 748.545 539.423 749.78 539.423C750.874 539.423 751.797 539.651 752.55 540.105C753.31 540.553 753.846 541.234 754.159 542.151C754.479 543.06 754.525 544.21 754.297 545.602L752.55 556H750.036L751.741 545.773C751.954 544.494 751.787 543.493 751.24 542.768C750.7 542.044 749.844 541.682 748.672 541.682C747.863 541.682 747.113 541.856 746.425 542.204C745.743 542.552 745.164 543.06 744.688 543.727C744.219 544.395 743.9 545.205 743.729 546.156ZM766.987 562.136L768.414 553.486H768.201C767.967 553.784 767.64 554.161 767.221 554.615C766.809 555.062 766.259 555.464 765.57 555.819C764.881 556.167 764.011 556.341 762.96 556.341C761.596 556.341 760.449 555.996 759.519 555.308C758.588 554.612 757.935 553.631 757.558 552.367C757.182 551.096 757.136 549.594 757.42 547.861C757.704 546.142 758.244 544.651 759.039 543.386C759.835 542.122 760.815 541.146 761.979 540.457C763.144 539.768 764.416 539.423 765.793 539.423C766.859 539.423 767.672 539.601 768.233 539.956C768.801 540.304 769.213 540.702 769.469 541.149C769.725 541.589 769.92 541.952 770.055 542.236H770.353L770.8 539.636H773.229L769.501 562.136H766.987ZM763.663 554.082C764.678 554.082 765.577 553.82 766.358 553.294C767.146 552.761 767.796 552.026 768.308 551.089C768.826 550.144 769.188 549.054 769.394 547.818C769.6 546.597 769.6 545.528 769.394 544.612C769.188 543.688 768.78 542.971 768.169 542.46C767.565 541.941 766.752 541.682 765.729 541.682C764.664 541.682 763.73 541.955 762.928 542.502C762.132 543.042 761.482 543.777 760.978 544.707C760.474 545.631 760.126 546.668 759.934 547.818C759.742 548.983 759.746 550.041 759.945 550.993C760.151 551.937 760.559 552.69 761.17 553.251C761.788 553.805 762.619 554.082 763.663 554.082ZM786.217 549.31L787.836 539.636H790.35L787.623 556H785.109L785.578 553.23H785.407C784.896 554.061 784.182 554.768 783.266 555.35C782.35 555.925 781.274 556.213 780.038 556.213C779.015 556.213 778.142 555.989 777.417 555.542C776.7 555.087 776.189 554.406 775.883 553.496C775.585 552.58 775.549 551.426 775.777 550.034L777.524 539.636H780.038L778.333 549.864C778.142 551.057 778.323 552.009 778.877 552.719C779.431 553.429 780.23 553.784 781.274 553.784C781.899 553.784 782.559 553.624 783.255 553.305C783.958 552.985 784.583 552.495 785.13 551.835C785.684 551.174 786.046 550.332 786.217 549.31ZM798.746 556.341C797.177 556.341 795.881 555.993 794.858 555.297C793.835 554.594 793.121 553.614 792.716 552.357C792.312 551.092 792.248 549.622 792.525 547.946C792.802 546.27 793.352 544.793 794.176 543.514C795 542.229 796.026 541.227 797.255 540.51C798.484 539.786 799.833 539.423 801.303 539.423C802.155 539.423 802.976 539.565 803.764 539.849C804.552 540.134 805.234 540.595 805.81 541.234C806.385 541.866 806.786 542.705 807.013 543.749C807.241 544.793 807.226 546.078 806.971 547.605L806.8 548.67H794.187L794.528 546.497H804.584C804.748 545.574 804.705 544.75 804.457 544.026C804.215 543.301 803.792 542.729 803.189 542.31C802.592 541.891 801.836 541.682 800.92 541.682C799.975 541.682 799.094 541.937 798.278 542.449C797.461 542.953 796.779 543.592 796.232 544.366C795.685 545.134 795.344 545.915 795.209 546.71L794.911 548.585C794.698 549.942 794.73 551.021 795.007 551.824C795.291 552.626 795.785 553.205 796.488 553.56C797.191 553.908 798.072 554.082 799.13 554.082C799.805 554.082 800.426 553.99 800.994 553.805C801.562 553.614 802.07 553.33 802.518 552.953C802.965 552.57 803.341 552.094 803.647 551.526L805.948 552.207C805.557 553.031 805.007 553.756 804.297 554.381C803.594 554.999 802.77 555.482 801.825 555.83C800.888 556.17 799.861 556.341 798.746 556.341ZM822.869 543.301L820.483 543.94C820.398 543.557 820.249 543.187 820.035 542.832C819.829 542.47 819.51 542.175 819.077 541.948C818.651 541.714 818.068 541.597 817.329 541.597C816.328 541.597 815.458 541.827 814.719 542.289C813.981 542.744 813.558 543.322 813.452 544.026C813.345 544.643 813.487 545.137 813.878 545.506C814.268 545.876 814.922 546.178 815.838 546.412L818.182 547.009C819.588 547.371 820.589 547.914 821.186 548.638C821.79 549.356 821.996 550.29 821.804 551.44C821.648 552.378 821.239 553.216 820.579 553.955C819.918 554.693 819.073 555.276 818.043 555.702C817.013 556.128 815.866 556.341 814.602 556.341C812.919 556.341 811.591 555.979 810.618 555.254C809.645 554.523 809.126 553.464 809.062 552.08L811.577 551.483C811.641 552.357 811.953 553.017 812.514 553.464C813.082 553.905 813.878 554.125 814.901 554.125C816.072 554.125 817.049 553.876 817.83 553.379C818.611 552.875 819.055 552.271 819.162 551.568C819.268 550.993 819.155 550.513 818.821 550.13C818.494 549.746 817.926 549.459 817.116 549.267L814.517 548.628C813.068 548.266 812.052 547.712 811.47 546.966C810.895 546.22 810.703 545.283 810.895 544.153C811.051 543.23 811.449 542.413 812.088 541.703C812.734 540.993 813.544 540.435 814.517 540.031C815.497 539.626 816.562 539.423 817.713 539.423C819.332 539.423 820.543 539.778 821.346 540.489C822.148 541.192 822.656 542.129 822.869 543.301ZM838.243 543.301L835.857 543.94C835.771 543.557 835.622 543.187 835.409 542.832C835.203 542.47 834.884 542.175 834.45 541.948C834.024 541.714 833.442 541.597 832.703 541.597C831.702 541.597 830.832 541.827 830.093 542.289C829.355 542.744 828.932 543.322 828.825 544.026C828.719 544.643 828.861 545.137 829.252 545.506C829.642 545.876 830.296 546.178 831.212 546.412L833.556 547.009C834.962 547.371 835.963 547.914 836.56 548.638C837.164 549.356 837.369 550.29 837.178 551.44C837.021 552.378 836.613 553.216 835.953 553.955C835.292 554.693 834.447 555.276 833.417 555.702C832.387 556.128 831.24 556.341 829.976 556.341C828.293 556.341 826.965 555.979 825.992 555.254C825.019 554.523 824.5 553.464 824.436 552.08L826.95 551.483C827.014 552.357 827.327 553.017 827.888 553.464C828.456 553.905 829.252 554.125 830.274 554.125C831.446 554.125 832.423 553.876 833.204 553.379C833.985 552.875 834.429 552.271 834.536 551.568C834.642 550.993 834.529 550.513 834.195 550.13C833.868 549.746 833.3 549.459 832.49 549.267L829.891 548.628C828.442 548.266 827.426 547.712 826.844 546.966C826.269 546.22 826.077 545.283 826.269 544.153C826.425 543.23 826.823 542.413 827.462 541.703C828.108 540.993 828.918 540.435 829.891 540.031C830.871 539.626 831.936 539.423 833.087 539.423C834.706 539.423 835.917 539.778 836.72 540.489C837.522 541.192 838.03 542.129 838.243 543.301ZM857.877 539.636L857.536 541.767H849.056L849.396 539.636H857.877ZM852.507 535.716H855.021L852.422 551.312C852.308 552.023 852.326 552.555 852.475 552.911C852.632 553.259 852.866 553.493 853.178 553.614C853.498 553.727 853.842 553.784 854.212 553.784C854.489 553.784 854.716 553.77 854.894 553.741C855.071 553.706 855.213 553.678 855.32 553.656L855.49 555.915C855.298 555.979 855.039 556.043 854.712 556.107C854.393 556.178 853.999 556.213 853.53 556.213C852.82 556.213 852.152 556.06 851.527 555.755C850.902 555.45 850.423 554.984 850.089 554.359C849.755 553.734 849.666 552.946 849.823 551.994L852.507 535.716ZM865.274 556.341C863.704 556.341 862.408 555.993 861.385 555.297C860.362 554.594 859.649 553.614 859.244 552.357C858.839 551.092 858.775 549.622 859.052 547.946C859.329 546.27 859.879 544.793 860.703 543.514C861.527 542.229 862.553 541.227 863.782 540.51C865.011 539.786 866.36 539.423 867.83 539.423C868.683 539.423 869.503 539.565 870.291 539.849C871.08 540.134 871.762 540.595 872.337 541.234C872.912 541.866 873.313 542.705 873.541 543.749C873.768 544.793 873.754 546.078 873.498 547.605L873.328 548.67H860.714L861.055 546.497H871.112C871.275 545.574 871.232 544.75 870.984 544.026C870.742 543.301 870.32 542.729 869.716 542.31C869.12 541.891 868.363 541.682 867.447 541.682C866.502 541.682 865.622 541.937 864.805 542.449C863.988 542.953 863.306 543.592 862.759 544.366C862.213 545.134 861.872 545.915 861.737 546.71L861.438 548.585C861.225 549.942 861.257 551.021 861.534 551.824C861.818 552.626 862.312 553.205 863.015 553.56C863.718 553.908 864.599 554.082 865.657 554.082C866.332 554.082 866.953 553.99 867.522 553.805C868.09 553.614 868.598 553.33 869.045 552.953C869.492 552.57 869.869 552.094 870.174 551.526L872.475 552.207C872.085 553.031 871.534 553.756 870.824 554.381C870.121 554.999 869.297 555.482 868.352 555.83C867.415 556.17 866.389 556.341 865.274 556.341ZM880.448 556.384C879.411 556.384 878.502 556.188 877.72 555.798C876.939 555.4 876.36 554.828 875.984 554.082C875.608 553.33 875.505 552.42 875.675 551.355C875.838 550.418 876.154 549.658 876.623 549.075C877.092 548.486 877.66 548.024 878.328 547.69C879.002 547.349 879.727 547.097 880.501 546.934C881.282 546.763 882.06 546.632 882.834 546.54C883.843 546.412 884.663 546.312 885.295 546.241C885.927 546.17 886.403 546.053 886.723 545.89C887.042 545.727 887.238 545.446 887.309 545.048V544.963C887.479 543.919 887.34 543.106 886.893 542.523C886.446 541.934 885.647 541.639 884.496 541.639C883.303 541.639 882.305 541.902 881.502 542.428C880.7 542.953 880.107 543.514 879.723 544.111L877.507 543.259C878.09 542.264 878.786 541.49 879.595 540.936C880.405 540.375 881.254 539.984 882.142 539.764C883.029 539.537 883.885 539.423 884.709 539.423C885.235 539.423 885.828 539.487 886.488 539.615C887.149 539.736 887.767 539.988 888.342 540.371C888.924 540.755 889.361 541.334 889.652 542.108C889.951 542.882 889.993 543.919 889.78 545.219L887.99 556H885.476L885.86 553.784H885.732C885.505 554.139 885.157 554.519 884.688 554.924C884.226 555.329 883.64 555.673 882.93 555.957C882.227 556.241 881.399 556.384 880.448 556.384ZM881.172 554.125C882.166 554.125 883.037 553.93 883.782 553.539C884.535 553.148 885.139 552.644 885.593 552.026C886.055 551.408 886.343 550.759 886.456 550.077L886.84 547.776C886.712 547.903 886.46 548.021 886.083 548.127C885.707 548.227 885.281 548.315 884.805 548.393C884.336 548.464 883.878 548.528 883.431 548.585C882.99 548.635 882.635 548.678 882.365 548.713C881.698 548.798 881.062 548.937 880.458 549.129C879.862 549.313 879.358 549.594 878.946 549.97C878.541 550.339 878.289 550.844 878.189 551.483C878.04 552.357 878.25 553.017 878.818 553.464C879.386 553.905 880.171 554.125 881.172 554.125ZM892.279 556L895.007 539.636H897.436L897.009 542.193H897.222C897.713 541.32 898.377 540.641 899.215 540.158C900.06 539.668 901.015 539.423 902.08 539.423C903.146 539.423 904.002 539.668 904.648 540.158C905.294 540.641 905.745 541.32 906.001 542.193H906.171C906.725 541.341 907.464 540.666 908.387 540.169C909.318 539.672 910.369 539.423 911.541 539.423C912.99 539.423 914.105 539.881 914.886 540.798C915.674 541.714 915.909 543.131 915.589 545.048L913.757 556H911.242L913.075 545.048C913.267 543.834 913.075 542.971 912.499 542.46C911.931 541.941 911.2 541.682 910.305 541.682C909.154 541.682 908.206 542.026 907.46 542.715C906.715 543.404 906.257 544.281 906.086 545.347L904.296 556H901.74L903.615 544.793C903.764 543.855 903.586 543.102 903.082 542.534C902.578 541.966 901.846 541.682 900.887 541.682C900.234 541.682 899.595 541.859 898.97 542.214C898.345 542.562 897.808 543.045 897.361 543.663C896.914 544.274 896.626 544.977 896.498 545.773L894.794 556H892.279Z" fill="black"/>
<path d="M330.438 330.438C330.438 341.173 321.735 349.876 311 349.876C300.265 349.876 291.562 341.173 291.562 330.438C291.562 319.703 300.265 311.001 311 311.001C321.735 311.001 330.438 319.703 330.438 330.438Z" fill="black"/>
<path d="M194.375 408.188C205.11 408.188 213.812 399.486 213.812 388.751C213.812 378.016 205.11 369.313 194.375 369.313C183.64 369.313 174.938 378.016 174.938 388.751C174.938 399.486 183.64 408.188 194.375 408.188Z" fill="black"/>
<path d="M213.812 447.063C213.812 457.798 205.11 466.501 194.375 466.501C183.64 466.501 174.938 457.798 174.938 447.063C174.938 436.328 183.64 427.626 194.375 427.626C205.11 427.626 213.812 436.328 213.812 447.063Z" fill="black"/>
<path d="M252.688 408.188C263.423 408.188 272.125 399.486 272.125 388.751C272.125 378.016 263.423 369.313 252.688 369.313C241.952 369.313 233.25 378.016 233.25 388.751C233.25 399.486 241.952 408.188 252.688 408.188Z" fill="black"/>
<path d="M272.125 447.063C272.125 457.798 263.423 466.501 252.688 466.501C241.952 466.501 233.25 457.798 233.25 447.063C233.25 436.328 241.952 427.626 252.688 427.626C263.423 427.626 272.125 436.328 272.125 447.063Z" fill="black"/>
<path d="M311 408.188C321.735 408.188 330.438 399.486 330.438 388.751C330.438 378.016 321.735 369.313 311 369.313C300.265 369.313 291.562 378.016 291.562 388.751C291.562 399.486 300.265 408.188 311 408.188Z" fill="black"/>
<path d="M330.438 447.063C330.438 457.798 321.735 466.501 311 466.501C300.265 466.501 291.562 457.798 291.562 447.063C291.562 436.328 300.265 427.626 311 427.626C321.735 427.626 330.438 436.328 330.438 447.063Z" fill="black"/>
<path d="M369.312 408.188C380.048 408.188 388.75 399.486 388.75 388.751C388.75 378.016 380.048 369.313 369.312 369.313C358.577 369.313 349.875 378.016 349.875 388.751C349.875 399.486 358.577 408.188 369.312 408.188Z" fill="black"/>
<path d="M388.75 447.063C388.75 457.798 380.048 466.501 369.312 466.501C358.577 466.501 349.875 457.798 349.875 447.063C349.875 436.328 358.577 427.626 369.312 427.626C380.048 427.626 388.75 436.328 388.75 447.063Z" fill="black"/>
<path d="M427.625 408.188C438.36 408.188 447.062 399.486 447.062 388.751C447.062 378.016 438.36 369.313 427.625 369.313C416.89 369.313 408.188 378.016 408.188 388.751C408.188 399.486 416.89 408.188 427.625 408.188Z" fill="black"/>
<path d="M388.75 330.438C388.75 341.173 380.048 349.876 369.312 349.876C358.577 349.876 349.875 341.173 349.875 330.438C349.875 319.703 358.577 311.001 369.312 311.001C380.048 311.001 388.75 319.703 388.75 330.438Z" fill="black"/>
<path d="M427.625 349.876C438.36 349.876 447.062 341.173 447.062 330.438C447.062 319.703 438.36 311.001 427.625 311.001C416.89 311.001 408.188 319.703 408.188 330.438C408.188 341.173 416.89 349.876 427.625 349.876Z" fill="black"/>
<path fill-rule="evenodd" clip-rule="evenodd" d="M174.938 58.3133C185.673 58.3133 194.375 67.0158 194.375 77.7508V116.626H427.625V77.7508C427.625 67.0158 436.327 58.3133 447.062 58.3133C457.798 58.3133 466.5 67.0158 466.5 77.7508V116.626H485.938C528.878 116.626 563.688 151.436 563.688 194.376V485.938C563.688 528.878 528.878 563.688 485.938 563.688H136.062C93.1224 563.688 58.3125 528.878 58.3125 485.938V194.376C58.3125 151.436 93.1224 116.626 136.062 116.626H155.5V77.7508C155.5 67.0158 164.202 58.3133 174.938 58.3133ZM524.812 291.563C524.812 270.093 507.408 252.688 485.938 252.688H136.062C114.592 252.688 97.1875 270.093 97.1875 291.563V485.938C97.1875 507.408 114.592 524.813 136.062 524.813H485.938C507.408 524.813 524.812 507.408 524.812 485.938V291.563Z" fill="black"/>
<rect x="337" y="253" width="294" height="272" rx="6" fill="white"/>
<rect x="168" y="261" width="385" height="249" rx="6" fill="white"/>
<rect x="215" y="253" width="243" height="115" rx="6" fill="white"/>
<path d="M176.091 269.909H200.364L226 332.455H227.091L252.727 269.909H277V363H257.909V302.409H257.136L233.045 362.545H220.045L195.955 302.182H195.182V363H176.091V269.909ZM321.838 364.364C314.777 364.364 308.671 362.864 303.52 359.864C298.398 356.833 294.444 352.621 291.656 347.227C288.868 341.803 287.474 335.515 287.474 328.364C287.474 321.152 288.868 314.848 291.656 309.455C294.444 304.03 298.398 299.818 303.52 296.818C308.671 293.788 314.777 292.273 321.838 292.273C328.898 292.273 334.989 293.788 340.11 296.818C345.262 299.818 349.232 304.03 352.02 309.455C354.807 314.848 356.201 321.152 356.201 328.364C356.201 335.515 354.807 341.803 352.02 347.227C349.232 352.621 345.262 356.833 340.11 359.864C334.989 362.864 328.898 364.364 321.838 364.364ZM321.929 349.364C325.141 349.364 327.823 348.455 329.974 346.636C332.126 344.788 333.747 342.273 334.838 339.091C335.959 335.909 336.52 332.288 336.52 328.227C336.52 324.167 335.959 320.545 334.838 317.364C333.747 314.182 332.126 311.667 329.974 309.818C327.823 307.97 325.141 307.045 321.929 307.045C318.686 307.045 315.959 307.97 313.747 309.818C311.565 311.667 309.913 314.182 308.792 317.364C307.701 320.545 307.156 324.167 307.156 328.227C307.156 332.288 307.701 335.909 308.792 339.091C309.913 342.273 311.565 344.788 313.747 346.636C315.959 348.455 318.686 349.364 321.929 349.364ZM385.596 322.636V363H366.232V293.182H384.687V305.5H385.505C387.05 301.439 389.641 298.227 393.278 295.864C396.914 293.47 401.323 292.273 406.505 292.273C411.353 292.273 415.581 293.333 419.187 295.455C422.793 297.576 425.596 300.606 427.596 304.545C429.596 308.455 430.596 313.121 430.596 318.545V363H411.232V322C411.263 317.727 410.172 314.394 407.96 312C405.747 309.576 402.702 308.364 398.823 308.364C396.217 308.364 393.914 308.924 391.914 310.045C389.944 311.167 388.399 312.803 387.278 314.955C386.187 317.076 385.626 319.636 385.596 322.636ZM489.434 389.182V351.818H488.843C487.934 353.758 486.646 355.682 484.979 357.591C483.343 359.47 481.206 361.03 478.57 362.273C475.964 363.515 472.782 364.136 469.025 364.136C463.722 364.136 458.918 362.773 454.615 360.045C450.343 357.288 446.949 353.242 444.434 347.909C441.949 342.545 440.706 335.97 440.706 328.182C440.706 320.182 441.994 313.53 444.57 308.227C447.146 302.894 450.57 298.909 454.843 296.273C459.146 293.606 463.858 292.273 468.979 292.273C472.888 292.273 476.146 292.939 478.752 294.273C481.388 295.576 483.509 297.212 485.115 299.182C486.752 301.121 487.994 303.03 488.843 304.909H489.661V293.182H508.752V389.182H489.434ZM475.161 348.727C478.282 348.727 480.918 347.879 483.07 346.182C485.252 344.455 486.918 342.045 488.07 338.955C489.252 335.864 489.843 332.242 489.843 328.091C489.843 323.939 489.267 320.333 488.115 317.273C486.964 314.212 485.297 311.848 483.115 310.182C480.934 308.515 478.282 307.682 475.161 307.682C471.979 307.682 469.297 308.545 467.115 310.273C464.934 312 463.282 314.394 462.161 317.455C461.04 320.515 460.479 324.061 460.479 328.091C460.479 332.152 461.04 335.742 462.161 338.864C463.312 341.955 464.964 344.379 467.115 346.136C469.297 347.864 471.979 348.727 475.161 348.727ZM566.51 333.273V293.182H585.874V363H567.283V350.318H566.555C564.98 354.409 562.358 357.697 558.692 360.182C555.055 362.667 550.616 363.909 545.374 363.909C540.707 363.909 536.601 362.848 533.055 360.727C529.51 358.606 526.737 355.591 524.737 351.682C522.768 347.773 521.768 343.091 521.737 337.636V293.182H541.101V334.182C541.131 338.303 542.237 341.561 544.419 343.955C546.601 346.348 549.525 347.545 553.192 347.545C555.525 347.545 557.707 347.015 559.737 345.955C561.768 344.864 563.404 343.258 564.646 341.136C565.919 339.015 566.54 336.394 566.51 333.273ZM630.62 364.364C623.439 364.364 617.257 362.909 612.075 360C606.923 357.061 602.954 352.909 600.166 347.545C597.378 342.152 595.984 335.773 595.984 328.409C595.984 321.227 597.378 314.924 600.166 309.5C602.954 304.076 606.878 299.848 611.939 296.818C617.03 293.788 622.999 292.273 629.848 292.273C634.454 292.273 638.742 293.015 642.711 294.5C646.711 295.955 650.196 298.152 653.166 301.091C656.166 304.03 658.499 307.727 660.166 312.182C661.833 316.606 662.666 321.788 662.666 327.727V333.045H603.711V321.045H644.439C644.439 318.258 643.833 315.788 642.62 313.636C641.408 311.485 639.727 309.803 637.575 308.591C635.454 307.348 632.984 306.727 630.166 306.727C627.227 306.727 624.62 307.409 622.348 308.773C620.105 310.106 618.348 311.909 617.075 314.182C615.802 316.424 615.151 318.924 615.12 321.682V333.091C615.12 336.545 615.757 339.53 617.03 342.045C618.333 344.561 620.166 346.5 622.53 347.864C624.893 349.227 627.696 349.909 630.939 349.909C633.09 349.909 635.06 349.606 636.848 349C638.636 348.394 640.166 347.485 641.439 346.273C642.711 345.061 643.681 343.576 644.348 341.818L662.257 343C661.348 347.303 659.484 351.061 656.666 354.273C653.878 357.455 650.272 359.939 645.848 361.727C641.454 363.485 636.378 364.364 630.62 364.364ZM730.833 313.091L713.106 314.182C712.803 312.667 712.151 311.303 711.151 310.091C710.151 308.848 708.833 307.864 707.197 307.136C705.591 306.379 703.667 306 701.424 306C698.424 306 695.894 306.636 693.833 307.909C691.773 309.152 690.742 310.818 690.742 312.909C690.742 314.576 691.409 315.985 692.742 317.136C694.076 318.288 696.364 319.212 699.606 319.909L712.242 322.455C719.03 323.848 724.091 326.091 727.424 329.182C730.757 332.273 732.424 336.333 732.424 341.364C732.424 345.939 731.076 349.955 728.379 353.409C725.712 356.864 722.045 359.561 717.379 361.5C712.742 363.409 707.394 364.364 701.333 364.364C692.091 364.364 684.727 362.439 679.242 358.591C673.788 354.712 670.591 349.439 669.651 342.773L688.697 341.773C689.273 344.591 690.667 346.742 692.879 348.227C695.091 349.682 697.924 350.409 701.379 350.409C704.773 350.409 707.5 349.758 709.56 348.455C711.651 347.121 712.712 345.409 712.742 343.318C712.712 341.561 711.97 340.121 710.515 339C709.06 337.848 706.818 336.97 703.788 336.364L691.697 333.955C684.879 332.591 679.803 330.227 676.47 326.864C673.167 323.5 671.515 319.212 671.515 314C671.515 309.515 672.727 305.652 675.151 302.409C677.606 299.167 681.045 296.667 685.47 294.909C689.924 293.152 695.136 292.273 701.106 292.273C709.924 292.273 716.864 294.136 721.924 297.864C727.015 301.591 729.985 306.667 730.833 313.091ZM800.148 313.091L782.421 314.182C782.118 312.667 781.466 311.303 780.466 310.091C779.466 308.848 778.148 307.864 776.512 307.136C774.906 306.379 772.982 306 770.739 306C767.739 306 765.209 306.636 763.148 307.909C761.088 309.152 760.057 310.818 760.057 312.909C760.057 314.576 760.724 315.985 762.057 317.136C763.391 318.288 765.679 319.212 768.921 319.909L781.557 322.455C788.345 323.848 793.406 326.091 796.739 329.182C800.072 332.273 801.739 336.333 801.739 341.364C801.739 345.939 800.391 349.955 797.694 353.409C795.027 356.864 791.36 359.561 786.694 361.5C782.057 363.409 776.709 364.364 770.648 364.364C761.406 364.364 754.042 362.439 748.557 358.591C743.103 354.712 739.906 349.439 738.966 342.773L758.012 341.773C758.588 344.591 759.982 346.742 762.194 348.227C764.406 349.682 767.239 350.409 770.694 350.409C774.088 350.409 776.815 349.758 778.875 348.455C780.966 347.121 782.027 345.409 782.057 343.318C782.027 341.561 781.285 340.121 779.83 339C778.375 337.848 776.133 336.97 773.103 336.364L761.012 333.955C754.194 332.591 749.118 330.227 745.785 326.864C742.482 323.5 740.83 319.212 740.83 314C740.83 309.515 742.042 305.652 744.466 302.409C746.921 299.167 750.36 296.667 754.785 294.909C759.239 293.152 764.451 292.273 770.421 292.273C779.239 292.273 786.179 294.136 791.239 297.864C796.33 301.591 799.3 306.667 800.148 313.091Z" fill="black"/>
<path d="M467.227 419.5H447.318C446.955 416.924 446.212 414.636 445.091 412.636C443.97 410.606 442.53 408.879 440.773 407.455C439.015 406.03 436.985 404.939 434.682 404.182C432.409 403.424 429.939 403.045 427.273 403.045C422.455 403.045 418.258 404.242 414.682 406.636C411.106 409 408.333 412.455 406.364 417C404.394 421.515 403.409 427 403.409 433.455C403.409 440.091 404.394 445.667 406.364 450.182C408.364 454.697 411.152 458.106 414.727 460.409C418.303 462.712 422.439 463.864 427.136 463.864C429.773 463.864 432.212 463.515 434.455 462.818C436.727 462.121 438.742 461.106 440.5 459.773C442.258 458.409 443.712 456.758 444.864 454.818C446.045 452.879 446.864 450.667 447.318 448.182L467.227 448.273C466.712 452.545 465.424 456.667 463.364 460.636C461.333 464.576 458.591 468.106 455.136 471.227C451.712 474.318 447.621 476.773 442.864 478.591C438.136 480.379 432.788 481.273 426.818 481.273C418.515 481.273 411.091 479.394 404.545 475.636C398.03 471.879 392.879 466.439 389.091 459.318C385.333 452.197 383.455 443.576 383.455 433.455C383.455 423.303 385.364 414.667 389.182 407.545C393 400.424 398.182 395 404.727 391.273C411.273 387.515 418.636 385.636 426.818 385.636C432.212 385.636 437.212 386.394 441.818 387.909C446.455 389.424 450.561 391.636 454.136 394.545C457.712 397.424 460.621 400.955 462.864 405.136C465.136 409.318 466.591 414.106 467.227 419.5ZM498.326 481.318C493.872 481.318 489.902 480.545 486.417 479C482.932 477.424 480.175 475.106 478.145 472.045C476.145 468.955 475.145 465.106 475.145 460.5C475.145 456.621 475.857 453.364 477.281 450.727C478.705 448.091 480.645 445.97 483.099 444.364C485.554 442.758 488.342 441.545 491.463 440.727C494.614 439.909 497.917 439.333 501.372 439C505.432 438.576 508.705 438.182 511.19 437.818C513.675 437.424 515.478 436.848 516.599 436.091C517.72 435.333 518.281 434.212 518.281 432.727V432.455C518.281 429.576 517.372 427.348 515.554 425.773C513.766 424.197 511.22 423.409 507.917 423.409C504.432 423.409 501.66 424.182 499.599 425.727C497.538 427.242 496.175 429.152 495.508 431.455L477.599 430C478.508 425.758 480.296 422.091 482.963 419C485.629 415.879 489.069 413.485 493.281 411.818C497.523 410.121 502.432 409.273 508.008 409.273C511.887 409.273 515.599 409.727 519.145 410.636C522.72 411.545 525.887 412.955 528.645 414.864C531.432 416.773 533.629 419.227 535.235 422.227C536.842 425.197 537.645 428.758 537.645 432.909V480H519.281V470.318H518.735C517.614 472.5 516.114 474.424 514.235 476.091C512.357 477.727 510.099 479.015 507.463 479.955C504.826 480.864 501.781 481.318 498.326 481.318ZM503.872 467.955C506.72 467.955 509.235 467.394 511.417 466.273C513.599 465.121 515.311 463.576 516.554 461.636C517.796 459.697 518.417 457.5 518.417 455.045V447.636C517.811 448.03 516.978 448.394 515.917 448.727C514.887 449.03 513.72 449.318 512.417 449.591C511.114 449.833 509.811 450.061 508.508 450.273C507.205 450.455 506.023 450.621 504.963 450.773C502.69 451.106 500.705 451.636 499.008 452.364C497.311 453.091 495.993 454.076 495.054 455.318C494.114 456.53 493.645 458.045 493.645 459.864C493.645 462.5 494.599 464.515 496.508 465.909C498.448 467.273 500.902 467.955 503.872 467.955ZM569.471 386.909V480H550.107V386.909H569.471ZM614.24 481.364C607.059 481.364 600.877 479.909 595.695 477C590.543 474.061 586.574 469.909 583.786 464.545C580.998 459.152 579.604 452.773 579.604 445.409C579.604 438.227 580.998 431.924 583.786 426.5C586.574 421.076 590.498 416.848 595.559 413.818C600.65 410.788 606.619 409.273 613.468 409.273C618.074 409.273 622.362 410.015 626.331 411.5C630.331 412.955 633.816 415.152 636.786 418.091C639.786 421.03 642.119 424.727 643.786 429.182C645.453 433.606 646.286 438.788 646.286 444.727V450.045H587.331V438.045H628.059C628.059 435.258 627.453 432.788 626.24 430.636C625.028 428.485 623.347 426.803 621.195 425.591C619.074 424.348 616.604 423.727 613.786 423.727C610.847 423.727 608.24 424.409 605.968 425.773C603.725 427.106 601.968 428.909 600.695 431.182C599.422 433.424 598.771 435.924 598.74 438.682V450.091C598.74 453.545 599.377 456.53 600.65 459.045C601.953 461.561 603.786 463.5 606.15 464.864C608.513 466.227 611.316 466.909 614.559 466.909C616.71 466.909 618.68 466.606 620.468 466C622.256 465.394 623.786 464.485 625.059 463.273C626.331 462.061 627.301 460.576 627.968 458.818L645.877 460C644.968 464.303 643.104 468.061 640.286 471.273C637.498 474.455 633.892 476.939 629.468 478.727C625.074 480.485 619.998 481.364 614.24 481.364ZM675.726 439.636V480H656.362V410.182H674.817V422.5H675.635C677.18 418.439 679.771 415.227 683.408 412.864C687.044 410.47 691.453 409.273 696.635 409.273C701.483 409.273 705.711 410.333 709.317 412.455C712.923 414.576 715.726 417.606 717.726 421.545C719.726 425.455 720.726 430.121 720.726 435.545V480H701.362V439C701.393 434.727 700.302 431.394 698.09 429C695.877 426.576 692.832 425.364 688.953 425.364C686.347 425.364 684.044 425.924 682.044 427.045C680.074 428.167 678.529 429.803 677.408 431.955C676.317 434.076 675.756 436.636 675.726 439.636ZM759.155 481.136C753.852 481.136 749.048 479.773 744.745 477.045C740.473 474.288 737.079 470.242 734.564 464.909C732.079 459.545 730.836 452.97 730.836 445.182C730.836 437.182 732.124 430.53 734.7 425.227C737.276 419.894 740.7 415.909 744.973 413.273C749.276 410.606 753.988 409.273 759.109 409.273C763.018 409.273 766.276 409.939 768.882 411.273C771.518 412.576 773.639 414.212 775.245 416.182C776.882 418.121 778.124 420.03 778.973 421.909H779.564V386.909H798.882V480H779.791V468.818H778.973C778.064 470.758 776.776 472.682 775.109 474.591C773.473 476.47 771.336 478.03 768.7 479.273C766.094 480.515 762.912 481.136 759.155 481.136ZM765.291 465.727C768.412 465.727 771.048 464.879 773.2 463.182C775.382 461.455 777.048 459.045 778.2 455.955C779.382 452.864 779.973 449.242 779.973 445.091C779.973 440.939 779.397 437.333 778.245 434.273C777.094 431.212 775.427 428.848 773.245 427.182C771.064 425.515 768.412 424.682 765.291 424.682C762.109 424.682 759.427 425.545 757.245 427.273C755.064 429 753.412 431.394 752.291 434.455C751.17 437.515 750.609 441.061 750.609 445.091C750.609 449.152 751.17 452.742 752.291 455.864C753.442 458.955 755.094 461.379 757.245 463.136C759.427 464.864 762.109 465.727 765.291 465.727ZM832.151 481.318C827.697 481.318 823.727 480.545 820.242 479C816.757 477.424 814 475.106 811.97 472.045C809.97 468.955 808.97 465.106 808.97 460.5C808.97 456.621 809.682 453.364 811.106 450.727C812.53 448.091 814.47 445.97 816.924 444.364C819.379 442.758 822.167 441.545 825.288 440.727C828.439 439.909 831.742 439.333 835.197 439C839.257 438.576 842.53 438.182 845.015 437.818C847.5 437.424 849.303 436.848 850.424 436.091C851.545 435.333 852.106 434.212 852.106 432.727V432.455C852.106 429.576 851.197 427.348 849.379 425.773C847.591 424.197 845.045 423.409 841.742 423.409C838.257 423.409 835.485 424.182 833.424 425.727C831.363 427.242 830 429.152 829.333 431.455L811.424 430C812.333 425.758 814.121 422.091 816.788 419C819.454 415.879 822.894 413.485 827.106 411.818C831.348 410.121 836.257 409.273 841.833 409.273C845.712 409.273 849.424 409.727 852.97 410.636C856.545 411.545 859.712 412.955 862.47 414.864C865.257 416.773 867.454 419.227 869.06 422.227C870.667 425.197 871.47 428.758 871.47 432.909V480H853.106V470.318H852.56C851.439 472.5 849.939 474.424 848.06 476.091C846.182 477.727 843.924 479.015 841.288 479.955C838.651 480.864 835.606 481.318 832.151 481.318ZM837.697 467.955C840.545 467.955 843.06 467.394 845.242 466.273C847.424 465.121 849.136 463.576 850.379 461.636C851.621 459.697 852.242 457.5 852.242 455.045V447.636C851.636 448.03 850.803 448.394 849.742 448.727C848.712 449.03 847.545 449.318 846.242 449.591C844.939 449.833 843.636 450.061 842.333 450.273C841.03 450.455 839.848 450.621 838.788 450.773C836.515 451.106 834.53 451.636 832.833 452.364C831.136 453.091 829.818 454.076 828.879 455.318C827.939 456.53 827.47 458.045 827.47 459.864C827.47 462.5 828.424 464.515 830.333 465.909C832.273 467.273 834.727 467.955 837.697 467.955ZM883.932 480V410.182H902.705V422.364H903.432C904.705 418.03 906.841 414.758 909.841 412.545C912.841 410.303 916.296 409.182 920.205 409.182C921.175 409.182 922.22 409.242 923.341 409.364C924.463 409.485 925.447 409.652 926.296 409.864V427.045C925.387 426.773 924.129 426.53 922.523 426.318C920.917 426.106 919.447 426 918.114 426C915.266 426 912.72 426.621 910.478 427.864C908.266 429.076 906.508 430.773 905.205 432.955C903.932 435.136 903.296 437.652 903.296 440.5V480H883.932Z" fill="black"/>
<circle cx="860.5" cy="315.5" r="40.5" fill="#282828"/>
<rect x="300" y="382" width="41" height="41" rx="3" fill="#CFCFCF"/>
<rect x="237" y="382" width="41" height="41" rx="3" fill="#282828"/>
<rect x="174" y="382" width="41" height="41" rx="3" fill="black"/>
<rect x="174" y="443" width="41" height="41" rx="3" fill="#CFCFCF"/>
<rect x="236" y="443" width="41" height="41" rx="3" fill="#282828"/>
<rect x="300" y="443" width="41" height="41" rx="3" fill="black"/>
</svg>
